# xmcd
#
# Track frame offsets:
#	182
#	19142
#	36582
#	55790
#	68350
#	86375
#	109035
#	125342
#	143095
#	157135
#	183520
#	199275
#
# Disc length: 2896 seconds
#
# Revision: 1
# Processed by: cddbd v1.4PL0 Copyright (c) Steve Scherf et al.
# Submitted via: audiograbber 1.81.03
#
DISCID=a30b4e0c
DTITLE=Hubert Sumlin - My Guitar and Me
DYEAR=1992
DGENRE=Blues
TTITLE0=Groove
TTITLE1=Easy, Hubert, Easy
TTITLE2=My Guitar and Me
TTITLE3=Don't Forget
TTITLE4=Happy with my french friends
TTITLE5=Give the name Jacquot
TTITLE6=The last Boogie
TTITLE7=I wonder why
TTITLE8=Boogin' all alone
TTITLE9=Broke and Hungry
TTITLE10=I'll be home on Tuesday II
TTITLE11=Jerkin in Paris
EXTD=
EXTT0=
EXTT1=
EXTT2=
EXTT3=
EXTT4=
EXTT5=
EXTT6=
EXTT7=
EXTT8=
EXTT9=
EXTT10=
EXTT11=
PLAYORDER=
